<?xml version="1.0" encoding="UTF-8"?><svg id="Layer_1" xmlns="http://www.w3.org/2000/svg" viewBox="0 0 300 264"><defs><style>.cls-1{fill:#74122f;}</style></defs><polygon class="cls-1" points="157.77 209.46 157.77 197.23 179.97 197.23 179.97 172.67 208.77 172.67 208.77 148.11 228.81 148.11 228.81 124.13 254.29 124.13 285.7 75.39 260.57 75.59 260.21 75.59 260.21 52.83 228.1 52.83 228.1 28.85 189.47 28.85 189.47 52.83 171.04 52.83 156.8 76.82 147.31 76.82 130.04 52.83 108.96 52.83 108.96 28.85 71.9 28.85 71.9 52.83 39.79 52.83 39.79 75.59 11.73 98.31 45.71 100.15 45.71 124.13 71.19 124.13 71.19 148.11 91.23 148.11 91.23 172.67 120.03 172.67 120.03 197.23 142.23 197.23 142.23 209.46 157.77 209.46"/><path class="cls-1" d="M288.02,52.26v-23.98h-22.03V0h-104.17v28.27h-23.65V0H34v28.27H11.98v23.98H0v72.45h23.02v23.98h22.57v23.98h22.82v24.56h24.15v24.56h22.2v18.41h18.83l16.4,23.8,16.4-23.8h18.83v-18.41h22.2v-24.56h24.15v-24.56h22.82v-23.98h22.57v-23.98h23.02V52.26h-11.98ZM254.29,124.13h-25.47v23.98h-20.04v24.56h-28.8v24.56h-22.2v12.23h-15.54v-12.23h-22.2v-24.56h-28.8v-24.56h-20.04v-23.98h-25.47v-23.98l-33.98-1.84,28.06-22.72v-22.76h32.12v-23.98h37.06v23.98h21.08l17.26,23.98h9.5l14.23-23.98h18.43v-23.98h38.63v23.98h32.12v22.76h.36l25.13-.2-31.41,48.75Z"/></svg>